# xmcd CD database file
#
# Track frame offsets:
#	150
#	18954
#	42524
#	59516
#	79593
#	98600
#	116360
#	137957
#	154942
#	168516
#	185115
#	202349
#	224467
#
# Disc length: 3312 seconds
#
# Revision: 2
# Processed by: cddbd v1.4PL0 Copyright (c) Steve Scherf et al.
# Submitted via: CDex 1.50Beta7
#
DISCID=be0cee0d
DTITLE=한영애 - Special Collection
DYEAR=2000
DGENRE=Blues
TTITLE0=여울목
TTITLE1=루씰
TTITLE2=따라가면 좋겠네
TTITLE3=누구없소
TTITLE4=호호호
TTITLE5=건널 수 없는 강
TTITLE6=비애
TTITLE7=코뿔소
TTITLE8=달
TTITLE9=여인 #3
TTITLE10=완행열차
TTITLE11=갈증
TTITLE12=바라본다
EXTD=YEAR: 2000
EXTT0=
EXTT1=
EXTT2=
EXTT3=
EXTT4=
EXTT5=
EXTT6=
EXTT7=
EXTT8=
EXTT9=
EXTT10=
EXTT11=
EXTT12=
PLAYORDER=
